<svg width="62" height="51" viewBox="0 0 62 51" fill="none" xmlns="http://www.w3.org/2000/svg">
<path d="M14.0938 16.6667C11.3541 15.6775 8.73791 15.2732 6.51689 15.7785L10.904 0.543045C17.8594 0.0618634 26.3864 3.65866 33.9121 9.19879C41.5517 14.8228 48.0426 22.3642 50.7175 29.4162L51.0178 30.2077L51.566 29.5627C52.7009 28.2274 55.0937 25.9005 57.2235 23.89C58.2841 22.8888 59.2728 21.9722 59.9964 21.3059C60.1358 21.1775 60.2653 21.0585 60.3836 20.9499C60.7129 30.2163 60.3188 41.0748 59.4373 47.6241C50.3796 50.3956 40.9445 49.9207 31.7968 49.3828C32.6744 47.9851 34.2171 46.0097 35.7331 44.1123C36.0201 43.7531 36.3057 43.3973 36.5843 43.05C37.1629 42.329 37.7118 41.645 38.1821 41.0449C38.8683 40.1696 39.4246 39.4271 39.6567 38.9965L39.7894 38.7501L39.6488 38.5081C36.5442 33.1644 30.3684 26.7415 23.8538 22.0614C20.5934 19.7192 17.2266 17.7977 14.0938 16.6667Z" stroke="black"/>
<path d="M31.2239 49.4776C29.6567 48.3582 29.0744 48.1066 26.705 46.1773C29.4328 42.9851 30.7761 40.7463 32.0093 38.289C25.889 27.7547 10.7924 21.4243 1 18.9762C3.49009 14.0155 4.86076 10.1674 5.47761 3.58209L10.8508 0.447762" stroke="black"/>
<path d="M10.4032 1.1194L5.25391 6.26866" stroke="black" stroke-width="0.8" stroke-linecap="round"/>
<path d="M9.73129 4.02985L4.58203 9.17911" stroke="black" stroke-width="0.8" stroke-linecap="round"/>
<path d="M8.83676 6.71642L3.6875 11.8657" stroke="black" stroke-width="0.8" stroke-linecap="round"/>
<path d="M8.16412 9.85075L4.58203 12.9851" stroke="black" stroke-width="0.8" stroke-linecap="round"/>
<path d="M8.94959 16.5815L4.02246 19.463" stroke="black" stroke-width="0.8" stroke-linecap="round"/>
<path d="M11.8597 16.5815L6.93262 19.463" stroke="black" stroke-width="0.8" stroke-linecap="round"/>
<path d="M13.2035 17.9248L8.27637 20.8063" stroke="black" stroke-width="0.8" stroke-linecap="round"/>
<path d="M17.5707 18.7585L12.6436 21.64" stroke="black" stroke-width="0.8" stroke-linecap="round"/>
<path d="M16.4493 17.9105L10.5156 21.7018" stroke="black" stroke-width="0.8" stroke-linecap="round"/>
<path d="M18.1293 20.1636L13.2021 23.0451" stroke="black" stroke-width="0.8" stroke-linecap="round"/>
<path d="M20.9265 20.5971L15.2111 23.4441" stroke="black" stroke-width="0.8" stroke-linecap="round"/>
<path d="M23.0389 21.9332L18.1371 24.8576" stroke="black" stroke-width="0.8" stroke-linecap="round"/>
<path d="M24.8318 23.2765L19.93 26.2009" stroke="black" stroke-width="0.8" stroke-linecap="round"/>
<path d="M27.0329 24.5728L22.6561 27.1431" stroke="black" stroke-width="0.8" stroke-linecap="round"/>
<path d="M28.4194 26.441L23.9555 28.857" stroke="black" stroke-width="0.8" stroke-linecap="round"/>
<path d="M30.6576 28.232L26.1938 30.648" stroke="black" stroke-width="0.8" stroke-linecap="round"/>
<path d="M32.4467 30.0233L27.9828 32.4393" stroke="black" stroke-width="0.8" stroke-linecap="round"/>
<path d="M58.314 21.9404L52.0453 20.821" stroke="black" stroke-width="0.8" stroke-linecap="round"/>
<path d="M59.6577 19.7889L53.3891 18.6694" stroke="black" stroke-width="0.8" stroke-linecap="round"/>
<path d="M49.8064 22.6119L56.9706 23.5075" stroke="black" stroke-width="0.8" stroke-linecap="round"/>
<path d="M54.9539 25.2986L48.4614 24.5995" stroke="black" stroke-width="0.8" stroke-linecap="round"/>
<path d="M33.7905 31.8143L29.3266 34.2303" stroke="black" stroke-width="0.8" stroke-linecap="round"/>
<path d="M35.5834 33.6054L31.1196 36.0214" stroke="black" stroke-width="0.8" stroke-linecap="round"/>
<path d="M37.4944 35.3732L31.8975 38.0597" stroke="black" stroke-width="0.8" stroke-linecap="round"/>
<path d="M38.6119 37.1641L31.4477 39.5982" stroke="black" stroke-width="0.8" stroke-linecap="round"/>
<path d="M39.2846 38.7313L30.1055 41.9409" stroke="black" stroke-width="0.8" stroke-linecap="round"/>
<path d="M37.4916 41.2524L28.3125 44.4621" stroke="black" stroke-width="0.8" stroke-linecap="round"/>
<path d="M35.9236 43.8806L27.4162 46.7009" stroke="black" stroke-width="0.8" stroke-linecap="round"/>
<path d="M34.1347 46.3433L28.7615 48.0442" stroke="black" stroke-width="0.8" stroke-linecap="round"/>
<path d="M7.49301 12.7612L2.34375 17.0149" stroke="black" stroke-width="0.8" stroke-linecap="round"/>
<path d="M6.59725 15.4478L1.67188 19.2537" stroke="black" stroke-width="0.8" stroke-linecap="round"/>
<path d="M48.0586 24.2803L54.9949 17.48C57.9773 17.5605 59.1531 18.34 60.8431 20.3361" stroke="black" stroke-width="0.8"/>
</svg>
