<svg width="281" height="600" viewBox="0 0 281 600" fill="none" xmlns="http://www.w3.org/2000/svg">
<mask id="path-1-inside-1_854_1278" fill="white">
<path d="M300 600C260.603 600 221.593 592.24 185.195 577.164C148.797 562.087 115.726 539.99 87.868 512.132C60.0104 484.274 37.9125 451.203 22.8361 414.805C7.7597 378.407 0 339.397 0 300C0 260.603 7.7597 221.593 22.8361 185.195C37.9125 148.797 60.0104 115.726 87.868 87.868C115.726 60.0104 148.797 37.9125 185.195 22.8361C221.593 7.75972 260.603 -3.44416e-06 300 0L300 300L300 600Z"/>
</mask>
<path d="M300 600C260.603 600 221.593 592.24 185.195 577.164C148.797 562.087 115.726 539.99 87.868 512.132C60.0104 484.274 37.9125 451.203 22.8361 414.805C7.7597 378.407 0 339.397 0 300C0 260.603 7.7597 221.593 22.8361 185.195C37.9125 148.797 60.0104 115.726 87.868 87.868C115.726 60.0104 148.797 37.9125 185.195 22.8361C221.593 7.75972 260.603 -3.44416e-06 300 0L300 300L300 600Z" stroke="#333333" stroke-width="16" mask="url(#path-1-inside-1_854_1278)"/>
</svg>
