<svg width="164" height="37" viewBox="0 0 164 37" fill="none" xmlns="http://www.w3.org/2000/svg">
<rect y="4.93829" width="160.457" height="31.1111" fill="#FABC05"/>
<g filter="url(#filter0_i_975_2688)">
<rect x="3.54297" width="160.457" height="31.1111" fill="#FABC05"/>
</g>
<rect x="4.04297" y="0.5" width="159.457" height="30.1111" stroke="white"/>
<g filter="url(#filter1_d_975_2688)">
<path d="M8.518 17.114C8.518 16.162 8.73733 15.308 9.176 14.552C9.624 13.796 10.226 13.208 10.982 12.788C11.7473 12.3587 12.5827 12.144 13.488 12.144C14.524 12.144 15.4433 12.4007 16.246 12.914C17.058 13.418 17.646 14.1367 18.01 15.07H16.092C15.84 14.5567 15.49 14.174 15.042 13.922C14.594 13.67 14.076 13.544 13.488 13.544C12.844 13.544 12.27 13.6887 11.766 13.978C11.262 14.2673 10.8653 14.6827 10.576 15.224C10.296 15.7653 10.156 16.3953 10.156 17.114C10.156 17.8327 10.296 18.4627 10.576 19.004C10.8653 19.5453 11.262 19.9653 11.766 20.264C12.27 20.5533 12.844 20.698 13.488 20.698C14.076 20.698 14.594 20.572 15.042 20.32C15.49 20.068 15.84 19.6853 16.092 19.172H18.01C17.646 20.1053 17.058 20.824 16.246 21.328C15.4433 21.832 14.524 22.084 13.488 22.084C12.5733 22.084 11.738 21.874 10.982 21.454C10.226 21.0247 9.624 20.432 9.176 19.676C8.73733 18.92 8.518 18.066 8.518 17.114ZM23.8681 14.16C24.4561 14.16 24.9788 14.286 25.4361 14.538C25.9028 14.79 26.2668 15.1633 26.5281 15.658C26.7988 16.1527 26.9341 16.75 26.9341 17.45V22H25.3521V17.688C25.3521 16.9973 25.1795 16.47 24.8341 16.106C24.4888 15.7327 24.0175 15.546 23.4201 15.546C22.8228 15.546 22.3468 15.7327 21.9921 16.106C21.6468 16.47 21.4741 16.9973 21.4741 17.688V22H19.8781V11.64H21.4741V15.182C21.7448 14.8553 22.0855 14.6033 22.4961 14.426C22.9161 14.2487 23.3735 14.16 23.8681 14.16ZM36.0399 17.954C36.0399 18.2433 36.0213 18.5047 35.9839 18.738H30.0899C30.1366 19.354 30.3653 19.8487 30.7759 20.222C31.1866 20.5953 31.6906 20.782 32.2879 20.782C33.1466 20.782 33.7533 20.4227 34.1079 19.704H35.8299C35.5966 20.4133 35.1719 20.9967 34.5559 21.454C33.9493 21.902 33.1933 22.126 32.2879 22.126C31.5506 22.126 30.8879 21.9627 30.2999 21.636C29.7213 21.3 29.2639 20.8333 28.9279 20.236C28.6013 19.6293 28.4379 18.9293 28.4379 18.136C28.4379 17.3427 28.5966 16.6473 28.9139 16.05C29.2406 15.4433 29.6933 14.9767 30.2719 14.65C30.8599 14.3233 31.5319 14.16 32.2879 14.16C33.0159 14.16 33.6646 14.3187 34.2339 14.636C34.8033 14.9533 35.2466 15.4013 35.5639 15.98C35.8813 16.5493 36.0399 17.2073 36.0399 17.954ZM34.3739 17.45C34.3646 16.862 34.1546 16.3907 33.7439 16.036C33.3333 15.6813 32.8246 15.504 32.2179 15.504C31.6673 15.504 31.1959 15.6813 30.8039 16.036C30.4119 16.3813 30.1786 16.8527 30.1039 17.45H34.3739ZM37.0785 18.136C37.0785 17.3427 37.2372 16.6473 37.5545 16.05C37.8812 15.4433 38.3292 14.9767 38.8985 14.65C39.4679 14.3233 40.1212 14.16 40.8585 14.16C41.7919 14.16 42.5619 14.384 43.1685 14.832C43.7845 15.2707 44.1999 15.9007 44.4145 16.722H42.6925C42.5525 16.3393 42.3285 16.0407 42.0205 15.826C41.7125 15.6113 41.3252 15.504 40.8585 15.504C40.2052 15.504 39.6825 15.7373 39.2905 16.204C38.9079 16.6613 38.7165 17.3053 38.7165 18.136C38.7165 18.9667 38.9079 19.6153 39.2905 20.082C39.6825 20.5487 40.2052 20.782 40.8585 20.782C41.7825 20.782 42.3939 20.376 42.6925 19.564H44.4145C44.1905 20.348 43.7705 20.9733 43.1545 21.44C42.5385 21.8973 41.7732 22.126 40.8585 22.126C40.1212 22.126 39.4679 21.9627 38.8985 21.636C38.3292 21.3 37.8812 20.8333 37.5545 20.236C37.2372 19.6293 37.0785 18.9293 37.0785 18.136ZM49.0571 18.15L52.6131 22H50.4571L47.6011 18.682V22H46.0051V11.64H47.6011V17.66L50.4011 14.286H52.6131L49.0571 18.15ZM60.7398 22.126C60.0118 22.126 59.3538 21.9627 58.7658 21.636C58.1778 21.3 57.7158 20.8333 57.3798 20.236C57.0438 19.6293 56.8758 18.9293 56.8758 18.136C56.8758 17.352 57.0484 16.6567 57.3938 16.05C57.7391 15.4433 58.2104 14.9767 58.8078 14.65C59.4051 14.3233 60.0724 14.16 60.8098 14.16C61.5471 14.16 62.2144 14.3233 62.8118 14.65C63.4091 14.9767 63.8804 15.4433 64.2258 16.05C64.5711 16.6567 64.7438 17.352 64.7438 18.136C64.7438 18.92 64.5664 19.6153 64.2118 20.222C63.8571 20.8287 63.3718 21.3 62.7558 21.636C62.1491 21.9627 61.4771 22.126 60.7398 22.126ZM60.7398 20.74C61.1504 20.74 61.5331 20.642 61.8878 20.446C62.2518 20.25 62.5458 19.956 62.7698 19.564C62.9938 19.172 63.1058 18.696 63.1058 18.136C63.1058 17.576 62.9984 17.1047 62.7838 16.722C62.5691 16.33 62.2844 16.036 61.9298 15.84C61.5751 15.644 61.1924 15.546 60.7818 15.546C60.3711 15.546 59.9884 15.644 59.6338 15.84C59.2884 16.036 59.0131 16.33 58.8078 16.722C58.6024 17.1047 58.4998 17.576 58.4998 18.136C58.4998 18.9667 58.7098 19.6107 59.1298 20.068C59.5591 20.516 60.0958 20.74 60.7398 20.74ZM73.3075 14.286V22H71.7115V21.09C71.4595 21.4073 71.1282 21.6593 70.7175 21.846C70.3162 22.0233 69.8868 22.112 69.4295 22.112C68.8228 22.112 68.2768 21.986 67.7915 21.734C67.3155 21.482 66.9375 21.1087 66.6575 20.614C66.3868 20.1193 66.2515 19.522 66.2515 18.822V14.286H67.8335V18.584C67.8335 19.2747 68.0062 19.8067 68.3515 20.18C68.6968 20.544 69.1682 20.726 69.7655 20.726C70.3628 20.726 70.8342 20.544 71.1795 20.18C71.5342 19.8067 71.7115 19.2747 71.7115 18.584V14.286H73.3075ZM77.2753 15.588V19.858C77.2753 20.1473 77.3406 20.3573 77.4713 20.488C77.6113 20.6093 77.8446 20.67 78.1713 20.67H79.1513V22H77.8913C77.1726 22 76.6219 21.832 76.2393 21.496C75.8566 21.16 75.6653 20.614 75.6653 19.858V15.588H74.7553V14.286H75.6653V12.368H77.2753V14.286H79.1513V15.588H77.2753ZM86.121 15.588V19.858C86.121 20.1473 86.1863 20.3573 86.317 20.488C86.457 20.6093 86.6903 20.67 87.017 20.67H87.997V22H86.737C86.0183 22 85.4677 21.832 85.085 21.496C84.7023 21.16 84.511 20.614 84.511 19.858V15.588H83.601V14.286H84.511V12.368H86.121V14.286H87.997V15.588H86.121ZM93.458 14.16C94.046 14.16 94.5686 14.286 95.026 14.538C95.4926 14.79 95.8566 15.1633 96.118 15.658C96.3886 16.1527 96.524 16.75 96.524 17.45V22H94.942V17.688C94.942 16.9973 94.7693 16.47 94.424 16.106C94.0786 15.7327 93.6073 15.546 93.01 15.546C92.4126 15.546 91.9366 15.7327 91.582 16.106C91.2366 16.47 91.064 16.9973 91.064 17.688V22H89.468V11.64H91.064V15.182C91.3346 14.8553 91.6753 14.6033 92.086 14.426C92.506 14.2487 92.9633 14.16 93.458 14.16ZM105.63 17.954C105.63 18.2433 105.611 18.5047 105.574 18.738H99.6798C99.7264 19.354 99.9551 19.8487 100.366 20.222C100.776 20.5953 101.28 20.782 101.878 20.782C102.736 20.782 103.343 20.4227 103.698 19.704H105.42C105.186 20.4133 104.762 20.9967 104.146 21.454C103.539 21.902 102.783 22.126 101.878 22.126C101.14 22.126 100.478 21.9627 99.8898 21.636C99.3111 21.3 98.8538 20.8333 98.5178 20.236C98.1911 19.6293 98.0278 18.9293 98.0278 18.136C98.0278 17.3427 98.1864 16.6473 98.5038 16.05C98.8304 15.4433 99.2831 14.9767 99.8618 14.65C100.45 14.3233 101.122 14.16 101.878 14.16C102.606 14.16 103.254 14.3187 103.824 14.636C104.393 14.9533 104.836 15.4013 105.154 15.98C105.471 16.5493 105.63 17.2073 105.63 17.954ZM103.964 17.45C103.954 16.862 103.744 16.3907 103.334 16.036C102.923 15.6813 102.414 15.504 101.808 15.504C101.257 15.504 100.786 15.6813 100.394 16.036C100.002 16.3813 99.7684 16.8527 99.6938 17.45H103.964ZM117.907 17.954C117.907 18.2433 117.888 18.5047 117.851 18.738H111.957C112.004 19.354 112.232 19.8487 112.643 20.222C113.054 20.5953 113.558 20.782 114.155 20.782C115.014 20.782 115.62 20.4227 115.975 19.704H117.697C117.464 20.4133 117.039 20.9967 116.423 21.454C115.816 21.902 115.06 22.126 114.155 22.126C113.418 22.126 112.755 21.9627 112.167 21.636C111.588 21.3 111.131 20.8333 110.795 20.236C110.468 19.6293 110.305 18.9293 110.305 18.136C110.305 17.3427 110.464 16.6473 110.781 16.05C111.108 15.4433 111.56 14.9767 112.139 14.65C112.727 14.3233 113.399 14.16 114.155 14.16C114.883 14.16 115.532 14.3187 116.101 14.636C116.67 14.9533 117.114 15.4013 117.431 15.98C117.748 16.5493 117.907 17.2073 117.907 17.954ZM116.241 17.45C116.232 16.862 116.022 16.3907 115.611 16.036C115.2 15.6813 114.692 15.504 114.085 15.504C113.534 15.504 113.063 15.6813 112.671 16.036C112.279 16.3813 112.046 16.8527 111.971 17.45H116.241ZM122.46 20.572L124.644 14.286H126.338L123.398 22H121.494L118.568 14.286H120.276L122.46 20.572ZM134.614 17.954C134.614 18.2433 134.595 18.5047 134.558 18.738H128.664C128.711 19.354 128.939 19.8487 129.35 20.222C129.761 20.5953 130.265 20.782 130.862 20.782C131.721 20.782 132.327 20.4227 132.682 19.704H134.404C134.171 20.4133 133.746 20.9967 133.13 21.454C132.523 21.902 131.767 22.126 130.862 22.126C130.125 22.126 129.462 21.9627 128.874 21.636C128.295 21.3 127.838 20.8333 127.502 20.236C127.175 19.6293 127.012 18.9293 127.012 18.136C127.012 17.3427 127.171 16.6473 127.488 16.05C127.815 15.4433 128.267 14.9767 128.846 14.65C129.434 14.3233 130.106 14.16 130.862 14.16C131.59 14.16 132.239 14.3187 132.808 14.636C133.377 14.9533 133.821 15.4013 134.138 15.98C134.455 16.5493 134.614 17.2073 134.614 17.954ZM132.948 17.45C132.939 16.862 132.729 16.3907 132.318 16.036C131.907 15.6813 131.399 15.504 130.792 15.504C130.241 15.504 129.77 15.6813 129.378 16.036C128.986 16.3813 128.753 16.8527 128.678 17.45H132.948ZM140.077 14.16C140.683 14.16 141.225 14.286 141.701 14.538C142.186 14.79 142.564 15.1633 142.835 15.658C143.105 16.1527 143.241 16.75 143.241 17.45V22H141.659V17.688C141.659 16.9973 141.486 16.47 141.141 16.106C140.795 15.7327 140.324 15.546 139.727 15.546C139.129 15.546 138.653 15.7327 138.299 16.106C137.953 16.47 137.781 16.9973 137.781 17.688V22H136.185V14.286H137.781V15.168C138.042 14.8507 138.373 14.6033 138.775 14.426C139.185 14.2487 139.619 14.16 140.077 14.16ZM147.139 15.588V19.858C147.139 20.1473 147.204 20.3573 147.335 20.488C147.475 20.6093 147.708 20.67 148.035 20.67H149.015V22H147.755C147.036 22 146.485 21.832 146.103 21.496C145.72 21.16 145.529 20.614 145.529 19.858V15.588H144.619V14.286H145.529V12.368H147.139V14.286H149.015V15.588H147.139ZM153.286 22.126C152.679 22.126 152.133 22.0187 151.648 21.804C151.172 21.58 150.794 21.2813 150.514 20.908C150.234 20.5253 150.084 20.1007 150.066 19.634H151.718C151.746 19.9607 151.9 20.236 152.18 20.46C152.469 20.6747 152.828 20.782 153.258 20.782C153.706 20.782 154.051 20.698 154.294 20.53C154.546 20.3527 154.672 20.1287 154.672 19.858C154.672 19.5687 154.532 19.354 154.252 19.214C153.981 19.074 153.547 18.92 152.95 18.752C152.371 18.5933 151.9 18.4393 151.536 18.29C151.172 18.1407 150.854 17.912 150.584 17.604C150.322 17.296 150.192 16.89 150.192 16.386C150.192 15.9753 150.313 15.602 150.556 15.266C150.798 14.9207 151.144 14.65 151.592 14.454C152.049 14.258 152.572 14.16 153.16 14.16C154.037 14.16 154.742 14.384 155.274 14.832C155.815 15.2707 156.104 15.8727 156.142 16.638H154.546C154.518 16.2927 154.378 16.0173 154.126 15.812C153.874 15.6067 153.533 15.504 153.104 15.504C152.684 15.504 152.362 15.5833 152.138 15.742C151.914 15.9007 151.802 16.1107 151.802 16.372C151.802 16.5773 151.876 16.75 152.026 16.89C152.175 17.03 152.357 17.142 152.572 17.226C152.786 17.3007 153.104 17.3987 153.524 17.52C154.084 17.6693 154.541 17.8233 154.896 17.982C155.26 18.1313 155.572 18.3553 155.834 18.654C156.095 18.9527 156.23 19.3493 156.24 19.844C156.24 20.2827 156.118 20.6747 155.876 21.02C155.633 21.3653 155.288 21.636 154.84 21.832C154.401 22.028 153.883 22.126 153.286 22.126Z" fill="white"/>
</g>
<defs>
<filter id="filter0_i_975_2688" x="3.54297" y="0" width="160.457" height="35.1111" filterUnits="userSpaceOnUse" color-interpolation-filters="sRGB">
<feFlood flood-opacity="0" result="BackgroundImageFix"/>
<feBlend mode="normal" in="SourceGraphic" in2="BackgroundImageFix" result="shape"/>
<feColorMatrix in="SourceAlpha" type="matrix" values="0 0 0 0 0 0 0 0 0 0 0 0 0 0 0 0 0 0 127 0" result="hardAlpha"/>
<feOffset dy="4"/>
<feGaussianBlur stdDeviation="4"/>
<feComposite in2="hardAlpha" operator="arithmetic" k2="-1" k3="1"/>
<feColorMatrix type="matrix" values="0 0 0 0 0 0 0 0 0 0 0 0 0 0 0 0 0 0 0.13 0"/>
<feBlend mode="normal" in2="shape" result="effect1_innerShadow_975_2688"/>
</filter>
<filter id="filter1_d_975_2688" x="4.51953" y="11.64" width="155.719" height="18.486" filterUnits="userSpaceOnUse" color-interpolation-filters="sRGB">
<feFlood flood-opacity="0" result="BackgroundImageFix"/>
<feColorMatrix in="SourceAlpha" type="matrix" values="0 0 0 0 0 0 0 0 0 0 0 0 0 0 0 0 0 0 127 0" result="hardAlpha"/>
<feOffset dy="4"/>
<feGaussianBlur stdDeviation="2"/>
<feComposite in2="hardAlpha" operator="out"/>
<feColorMatrix type="matrix" values="0 0 0 0 0 0 0 0 0 0 0 0 0 0 0 0 0 0 0.25 0"/>
<feBlend mode="normal" in2="BackgroundImageFix" result="effect1_dropShadow_975_2688"/>
<feBlend mode="normal" in="SourceGraphic" in2="effect1_dropShadow_975_2688" result="shape"/>
</filter>
</defs>
</svg>
