<svg width="385" height="431" viewBox="0 0 385 431" fill="none" xmlns="http://www.w3.org/2000/svg">
<rect x="61.8301" width="325" height="396" rx="4" transform="rotate(6.5 61.8301 0)" fill="#491611"/>
<rect width="325" height="396" rx="4" fill="#E94436"/>
<path d="M93.72 354.04H103.48V357H90.08V329.12H93.72V354.04ZM127.346 345.2C127.346 345.893 127.306 346.627 127.226 347.4H109.706C109.839 349.56 110.572 351.253 111.906 352.48C113.266 353.68 114.906 354.28 116.826 354.28C118.399 354.28 119.706 353.92 120.746 353.2C121.812 352.453 122.559 351.467 122.986 350.24H126.906C126.319 352.347 125.146 354.067 123.386 355.4C121.626 356.707 119.439 357.36 116.826 357.36C114.746 357.36 112.879 356.893 111.226 355.96C109.599 355.027 108.319 353.707 107.386 352C106.452 350.267 105.986 348.267 105.986 346C105.986 343.733 106.439 341.747 107.346 340.04C108.252 338.333 109.519 337.027 111.146 336.12C112.799 335.187 114.692 334.72 116.826 334.72C118.906 334.72 120.746 335.173 122.346 336.08C123.946 336.987 125.172 338.24 126.026 339.84C126.906 341.413 127.346 343.2 127.346 345.2ZM123.586 344.44C123.586 343.053 123.279 341.867 122.666 340.88C122.052 339.867 121.212 339.107 120.146 338.6C119.106 338.067 117.946 337.8 116.666 337.8C114.826 337.8 113.252 338.387 111.946 339.56C110.666 340.733 109.932 342.36 109.746 344.44H123.586ZM130.79 345.96C130.79 343.72 131.244 341.76 132.15 340.08C133.057 338.373 134.297 337.053 135.87 336.12C137.47 335.187 139.244 334.72 141.19 334.72C143.11 334.72 144.777 335.133 146.19 335.96C147.604 336.787 148.657 337.827 149.35 339.08V335.08H153.03V357H149.35V352.92C148.63 354.2 147.55 355.267 146.11 356.12C144.697 356.947 143.044 357.36 141.15 357.36C139.204 357.36 137.444 356.88 135.87 355.92C134.297 354.96 133.057 353.613 132.15 351.88C131.244 350.147 130.79 348.173 130.79 345.96ZM149.35 346C149.35 344.347 149.017 342.907 148.35 341.68C147.684 340.453 146.777 339.52 145.63 338.88C144.51 338.213 143.27 337.88 141.91 337.88C140.55 337.88 139.31 338.2 138.19 338.84C137.07 339.48 136.177 340.413 135.51 341.64C134.844 342.867 134.51 344.307 134.51 345.96C134.51 347.64 134.844 349.107 135.51 350.36C136.177 351.587 137.07 352.533 138.19 353.2C139.31 353.84 140.55 354.16 141.91 354.16C143.27 354.16 144.51 353.84 145.63 353.2C146.777 352.533 147.684 351.587 148.35 350.36C149.017 349.107 149.35 347.653 149.35 346ZM162.822 338.64C163.462 337.387 164.368 336.413 165.542 335.72C166.742 335.027 168.195 334.68 169.902 334.68V338.44H168.942C164.862 338.44 162.822 340.653 162.822 345.08V357H159.182V335.08H162.822V338.64ZM184.783 334.68C187.45 334.68 189.61 335.493 191.263 337.12C192.917 338.72 193.743 341.04 193.743 344.08V357H190.143V344.6C190.143 342.413 189.597 340.747 188.503 339.6C187.41 338.427 185.917 337.84 184.023 337.84C182.103 337.84 180.57 338.44 179.423 339.64C178.303 340.84 177.743 342.587 177.743 344.88V357H174.103V335.08H177.743V338.2C178.463 337.08 179.437 336.213 180.663 335.6C181.917 334.987 183.29 334.68 184.783 334.68Z" fill="white"/>
<path d="M231.5 137H244V220H81V137H93.5" stroke="white" stroke-width="3"/>
<path d="M94.5 208.392V114.31C109.132 112.356 120.089 112.059 130.233 113.635C140.424 115.217 149.885 118.703 161.5 124.431V217.362C136.898 208.557 121.525 206.577 94.5 208.392Z" stroke="white" stroke-width="3"/>
<path d="M230.5 208.269V114.186C215.868 112.232 204.911 111.936 194.767 113.511C184.576 115.094 175.115 118.579 163.5 124.307V217.239C188.102 208.433 203.475 206.453 230.5 208.269Z" stroke="white" stroke-width="3"/>
<path d="M162.484 96.3831L120.719 80.0401L162.485 64.6047L201.981 80.0398L162.484 96.3831ZM162.663 64.5388C162.663 64.5389 162.663 64.539 162.663 64.5391L162.663 64.5388L162.49 64.0698L162.663 64.5388ZM203.139 80.4922C203.138 80.492 203.138 80.4919 203.137 80.4917L203.139 80.4922ZM119.496 79.5615L119.495 79.5611L119.312 80.0267L119.495 79.5611C119.495 79.5612 119.495 79.5613 119.496 79.5615Z" stroke="white" stroke-width="3"/>
<line x1="134" y1="86" x2="134" y2="113" stroke="white" stroke-width="2"/>
<line x1="191" y1="84" x2="191" y2="113" stroke="white" stroke-width="2"/>
<path d="M120 81V100" stroke="white" stroke-width="3" stroke-linecap="round"/>
<path d="M169.961 151.502C179.5 144.5 204 142 219 146" stroke="white" stroke-width="2" stroke-linecap="round"/>
<path d="M170.402 170.123C179.941 163.122 204.441 160.622 219.441 164.622" stroke="white" stroke-width="2" stroke-linecap="round"/>
<path d="M170.402 188.123C179.941 181.122 204.441 178.622 219.441 182.622" stroke="white" stroke-width="2" stroke-linecap="round"/>
<path d="M150.609 150.98C141.07 143.978 116.57 141.478 101.57 145.478" stroke="white" stroke-width="2" stroke-linecap="round"/>
<path d="M150.168 169.602C140.629 162.6 116.129 160.1 101.129 164.1" stroke="white" stroke-width="2" stroke-linecap="round"/>
<path d="M150.168 187.602C140.629 180.6 116.129 178.1 101.129 182.1" stroke="white" stroke-width="2" stroke-linecap="round"/>
</svg>