<svg width="128" height="144" viewBox="0 0 128 144" fill="none" xmlns="http://www.w3.org/2000/svg">
<rect x="20.5703" width="108.125" height="131.746" rx="4" transform="rotate(6.5 20.5703 0)" fill="#684E00"/>
<rect width="108.125" height="131.746" rx="4" fill="#FABC05"/>
<path d="M38.52 98.51H42.18V99.62H37.155V89.165H38.52V98.51ZM51.1296 95.195C51.1296 95.455 51.1146 95.73 51.0846 96.02H44.5146C44.5646 96.83 44.8396 97.465 45.3396 97.925C45.8496 98.375 46.4646 98.6 47.1846 98.6C47.7746 98.6 48.2646 98.465 48.6546 98.195C49.0546 97.915 49.3346 97.545 49.4946 97.085H50.9646C50.7446 97.875 50.3046 98.52 49.6446 99.02C48.9846 99.51 48.1646 99.755 47.1846 99.755C46.4046 99.755 45.7046 99.58 45.0846 99.23C44.4746 98.88 43.9946 98.385 43.6446 97.745C43.2946 97.095 43.1196 96.345 43.1196 95.495C43.1196 94.645 43.2896 93.9 43.6296 93.26C43.9696 92.62 44.4446 92.13 45.0546 91.79C45.6746 91.44 46.3846 91.265 47.1846 91.265C47.9646 91.265 48.6546 91.435 49.2546 91.775C49.8546 92.115 50.3146 92.585 50.6346 93.185C50.9646 93.775 51.1296 94.445 51.1296 95.195ZM49.7196 94.91C49.7196 94.39 49.6046 93.945 49.3746 93.575C49.1446 93.195 48.8296 92.91 48.4296 92.72C48.0396 92.52 47.6046 92.42 47.1246 92.42C46.4346 92.42 45.8446 92.64 45.3546 93.08C44.8746 93.52 44.5996 94.13 44.5296 94.91H49.7196ZM52.4214 95.48C52.4214 94.64 52.5914 93.905 52.9314 93.275C53.2714 92.635 53.7364 92.14 54.3264 91.79C54.9264 91.44 55.5914 91.265 56.3214 91.265C57.0414 91.265 57.6664 91.42 58.1964 91.73C58.7264 92.04 59.1214 92.43 59.3814 92.9V91.4H60.7614V99.62H59.3814V98.09C59.1114 98.57 58.7064 98.97 58.1664 99.29C57.6364 99.6 57.0164 99.755 56.3064 99.755C55.5764 99.755 54.9164 99.575 54.3264 99.215C53.7364 98.855 53.2714 98.35 52.9314 97.7C52.5914 97.05 52.4214 96.31 52.4214 95.48ZM59.3814 95.495C59.3814 94.875 59.2564 94.335 59.0064 93.875C58.7564 93.415 58.4164 93.065 57.9864 92.825C57.5664 92.575 57.1014 92.45 56.5914 92.45C56.0814 92.45 55.6164 92.57 55.1964 92.81C54.7764 93.05 54.4414 93.4 54.1914 93.86C53.9414 94.32 53.8164 94.86 53.8164 95.48C53.8164 96.11 53.9414 96.66 54.1914 97.13C54.4414 97.59 54.7764 97.945 55.1964 98.195C55.6164 98.435 56.0814 98.555 56.5914 98.555C57.1014 98.555 57.5664 98.435 57.9864 98.195C58.4164 97.945 58.7564 97.59 59.0064 97.13C59.2564 96.66 59.3814 96.115 59.3814 95.495ZM62.5581 95.48C62.5581 94.64 62.7281 93.905 63.0681 93.275C63.4081 92.635 63.8731 92.14 64.4631 91.79C65.0631 91.44 65.7331 91.265 66.4731 91.265C67.1131 91.265 67.7081 91.415 68.2581 91.715C68.8081 92.005 69.2281 92.39 69.5181 92.87V88.52H70.8981V99.62H69.5181V98.075C69.2481 98.565 68.8481 98.97 68.3181 99.29C67.7881 99.6 67.1681 99.755 66.4581 99.755C65.7281 99.755 65.0631 99.575 64.4631 99.215C63.8731 98.855 63.4081 98.35 63.0681 97.7C62.7281 97.05 62.5581 96.31 62.5581 95.48ZM69.5181 95.495C69.5181 94.875 69.3931 94.335 69.1431 93.875C68.8931 93.415 68.5531 93.065 68.1231 92.825C67.7031 92.575 67.2381 92.45 66.7281 92.45C66.2181 92.45 65.7531 92.57 65.3331 92.81C64.9131 93.05 64.5781 93.4 64.3281 93.86C64.0781 94.32 63.9531 94.86 63.9531 95.48C63.9531 96.11 64.0781 96.66 64.3281 97.13C64.5781 97.59 64.9131 97.945 65.3331 98.195C65.7531 98.435 66.2181 98.555 66.7281 98.555C67.2381 98.555 67.7031 98.435 68.1231 98.195C68.5531 97.945 68.8931 97.59 69.1431 97.13C69.3931 96.66 69.5181 96.115 69.5181 95.495Z" fill="white"/>
</svg>
