<svg width="128" height="144" viewBox="0 0 128 144" fill="none" xmlns="http://www.w3.org/2000/svg">
<rect x="20.5703" width="108.125" height="131.746" rx="4" transform="rotate(6.5 20.5703 0)" fill="#09172E"/>
<rect width="108.125" height="131.746" rx="4" fill="#4385F3"/>
<path d="M63.5417 31.6149C66.6432 33.5506 69.2693 36.1767 71.205 39.2781C70.8315 39.5025 70.7057 39.9859 70.9247 40.3644C72.893 43.7664 74.0199 47.7161 74.0199 51.9314C74.0199 56.1468 72.893 60.0965 70.9247 63.4984C70.7057 63.877 70.8315 64.3603 71.205 64.5847C69.2693 67.6861 66.6432 70.3123 63.5417 72.248C63.3174 71.8745 62.834 71.7487 62.4554 71.9677C59.0535 73.936 55.1038 75.0628 50.8885 75.0628C46.6731 75.0628 42.7234 73.936 39.3215 71.9677C38.9429 71.7487 38.4595 71.8745 38.2352 72.248C35.1337 70.3123 32.5076 67.6862 30.5719 64.5847C30.9454 64.3603 31.0712 63.877 30.8522 63.4984C28.8839 60.0965 27.757 56.1468 27.757 51.9314C27.757 47.7161 28.8839 43.7664 30.8522 40.3644C31.0712 39.9859 30.9454 39.5025 30.5719 39.2781C32.5076 36.1767 35.1337 33.5506 38.2352 31.6149C38.4595 31.9884 38.9429 32.1142 39.3215 31.8952C42.7234 29.9268 46.6731 28.8 50.8885 28.8C55.1038 28.8 59.0535 29.9268 62.4554 31.8952C62.834 32.1142 63.3174 31.9884 63.5417 31.6149Z" stroke="white" stroke-width="1.6" stroke-linecap="round" stroke-dasharray="30 15"/>
<g clip-path="url(#clip0_975_2640)">
<path d="M38.0903 49.1203H37.283C37.1329 48.5353 36.8987 47.9873 36.5933 47.4861L37.1736 46.9044C37.3303 46.7477 37.4165 46.5387 37.4165 46.3167C37.4165 46.0951 37.3297 45.8858 37.1736 45.7294L36.2063 44.7631C35.8926 44.4491 35.3444 44.4494 35.032 44.7628L34.4271 45.364C33.9315 45.0751 33.4002 44.8525 32.8148 44.7094V43.8455C32.8148 43.3873 32.4488 43.0107 31.9906 43.0107H30.6231C30.165 43.0107 29.8046 43.3873 29.8046 43.8455V44.7091C29.2195 44.8519 28.6849 45.0748 28.1886 45.364L27.5841 44.7628C27.2707 44.4487 26.7221 44.4491 26.4077 44.7624L25.4411 45.7287C25.2861 45.8834 25.1976 46.0974 25.1976 46.3161C25.1976 46.5377 25.2834 46.7464 25.4404 46.9031L26.0208 47.4861C25.7157 47.9873 25.4812 48.5353 25.3314 49.1203H24.5238C24.0653 49.1203 23.6953 49.4886 23.6953 49.9458V51.3123C23.6953 51.7708 24.0653 52.1308 24.5238 52.1308H25.3314C25.4812 52.7159 25.7154 53.2671 26.0202 53.7683L25.4398 54.3523C25.2828 54.509 25.1966 54.7187 25.1966 54.9407C25.1966 55.1626 25.2831 55.3723 25.4398 55.529L26.4071 56.496C26.5641 56.6527 26.7725 56.7388 26.9941 56.7388C27.2157 56.7388 27.4244 56.6523 27.5814 56.496L28.1886 55.8944C28.6849 56.1836 29.2195 56.4062 29.8046 56.5496V57.4123C29.8046 57.8704 30.165 58.2398 30.6231 58.2398H31.9906C32.4488 58.2398 32.8148 57.8704 32.8148 57.4123V56.5493C33.4002 56.4062 33.9315 56.1836 34.4278 55.8944L35.0297 56.4946C35.1867 56.652 35.3954 56.7381 35.6177 56.7381C35.8396 56.7381 36.0487 56.6517 36.2053 56.4953L37.1726 55.529C37.3293 55.3726 37.4151 55.1636 37.4158 54.942C37.4158 54.72 37.329 54.5117 37.1726 54.3547L36.5929 53.7683C36.8977 53.2668 37.1319 52.7152 37.282 52.1308H38.0896C38.5477 52.1308 38.9244 51.7708 38.9244 51.3123V49.9458C38.9247 49.4886 38.5484 49.1203 38.0903 49.1203ZM31.3065 53.2303C29.8562 53.2303 28.6802 52.0653 28.6802 50.6292C28.6802 49.1922 29.8562 48.0287 31.3065 48.0287C32.7572 48.0287 33.9338 49.1922 33.9338 50.6292C33.9335 52.0656 32.7572 53.2303 31.3065 53.2303Z" fill="#4385F3"/>
<path d="M35.2819 49.3326H34.7053C34.5981 48.9147 34.4308 48.5234 34.2126 48.1654L34.6272 47.7499C34.7391 47.6379 34.8006 47.4886 34.8006 47.3301C34.8006 47.1718 34.7386 47.0223 34.6272 46.9106L33.9363 46.2204C33.7122 45.9961 33.3206 45.9963 33.0975 46.2201L32.6654 46.6496C32.3114 46.4433 31.9319 46.2843 31.5138 46.1821V45.565C31.5138 45.2377 31.2523 44.9687 30.9251 44.9687H29.9483C29.6211 44.9687 29.3637 45.2377 29.3637 45.565V46.1818C28.9458 46.2838 28.5639 46.443 28.2095 46.6496L27.7776 46.2201C27.5538 45.9958 27.162 45.9961 26.9374 46.2199L26.247 46.9101C26.1362 47.0206 26.0731 47.1735 26.0731 47.3296C26.0731 47.4879 26.1343 47.637 26.2465 47.7489L26.661 48.1654C26.4431 48.5234 26.2756 48.9147 26.1686 49.3326H25.5918C25.2643 49.3326 25 49.5957 25 49.9222V50.8983C25 51.2257 25.2643 51.4829 25.5918 51.4829H26.1686C26.2756 51.9008 26.4429 52.2945 26.6606 52.6525L26.246 53.0697C26.1339 53.1816 26.0723 53.3314 26.0723 53.4899C26.0723 53.6484 26.1341 53.7982 26.246 53.9101L26.9369 54.6008C27.0491 54.7127 27.1979 54.7743 27.3562 54.7743C27.5145 54.7743 27.6636 54.7125 27.7757 54.6008L28.2095 54.1711C28.5639 54.3777 28.9458 54.5367 29.3637 54.6392V55.2553C29.3637 55.5825 29.6211 55.8464 29.9483 55.8464H30.9251C31.2523 55.8464 31.5138 55.5825 31.5138 55.2553V54.6389C31.9319 54.5367 32.3114 54.3777 32.6659 54.1711L33.0958 54.5999C33.2079 54.7123 33.357 54.7738 33.5158 54.7738C33.6743 54.7738 33.8236 54.712 33.9355 54.6004L34.6265 53.9101C34.7384 53.7985 34.7997 53.6492 34.8001 53.4909C34.8001 53.3323 34.7381 53.1835 34.6265 53.0713L34.2124 52.6525C34.4301 52.2943 34.5974 51.9003 34.7045 51.4829H35.2814C35.6086 51.4829 35.8777 51.2257 35.8777 50.8983V49.9222C35.8779 49.5957 35.6091 49.3326 35.2819 49.3326ZM30.4365 52.2683C29.4006 52.2683 28.5606 51.4361 28.5606 50.4104C28.5606 49.3839 29.4006 48.5529 30.4365 48.5529C31.4726 48.5529 32.3131 49.3839 32.3131 50.4104C32.3128 51.4363 31.4726 52.2683 30.4365 52.2683Z" fill="white"/>
</g>
<path d="M44.4562 59.4066V61.8174H47.6088C47.6088 59.4066 50.3905 59.4066 50.3905 61.8174C51.9883 61.8174 53.2835 60.5222 53.2835 58.9244V58.0714C53.2835 56.0025 51.6063 54.3253 49.5374 54.3253H46.6816C45.4525 54.3253 44.4562 55.3216 44.4562 56.5507C42.1938 56.5507 41.7116 59.4066 44.4562 59.4066Z" fill="white" stroke="#4385F3" stroke-width="0.5"/>
<path d="M40.2128 65.5674V67.8389H37.507C37.507 65.5674 34.9347 65.5674 34.9347 67.8389H31.5273C31.5273 63.0619 34.9347 59.7214 40.2128 59.7214V63.0619C38.4423 63.0619 38.3421 65.5674 40.2128 65.5674Z" fill="white" stroke="#4385F3" stroke-width="0.5"/>
<path d="M37.6134 67.8903H40.094V70.2056C37.6134 70.2056 37.6134 73.1493 40.094 73.1493V76.7546H35.9926V75.2662C35.9926 75.2662 31.5273 72.2894 31.5273 67.8903H34.8775C34.6365 65.8065 37.6134 65.5088 37.6134 67.8903Z" fill="white" stroke="#4385F3" stroke-width="0.5"/>
<path d="M42.6913 67.8903H40.2107V70.2056C37.5316 70.2056 37.73 73.1268 40.2107 73.1268V76.7546H44.3121V75.2662C44.3121 75.2662 48.7773 72.2894 48.7773 67.8903H45.4272C45.6682 65.8065 42.6913 65.5088 42.6913 67.8903Z" fill="white" stroke="#4385F3" stroke-width="0.5"/>
<path d="M35.3984 78.2725C35.3984 78.1279 35.5157 78.0106 35.6603 78.0106H44.5988C44.7434 78.0106 44.8607 78.1279 44.8607 78.2725C44.8607 78.4172 44.7434 78.5344 44.5988 78.5344H35.6603C35.5157 78.5344 35.3984 78.4172 35.3984 78.2725Z" stroke="white" stroke-width="1.5"/>
<path d="M36.586 79.7672V79.7242V79.7672Z" stroke="white" stroke-width="1.5"/>
<mask id="path-12-inside-1_975_2640" fill="white">
<path d="M43.7092 80.1051C43.7092 80.5956 43.3539 81.0659 42.7215 81.4127C42.0891 81.7595 41.2313 81.9544 40.337 81.9544C39.4426 81.9544 38.5849 81.7595 37.9525 81.4127C37.3201 81.0659 36.9648 80.5956 36.9648 80.1051L40.337 80.1051H43.7092Z"/>
</mask>
<path d="M43.7092 80.1051C43.7092 80.5956 43.3539 81.0659 42.7215 81.4127C42.0891 81.7595 41.2313 81.9544 40.337 81.9544C39.4426 81.9544 38.5849 81.7595 37.9525 81.4127C37.3201 81.0659 36.9648 80.5956 36.9648 80.1051L40.337 80.1051H43.7092Z" stroke="white" stroke-width="3" mask="url(#path-12-inside-1_975_2640)"/>
<rect x="59.625" y="51.9638" width="20.6032" height="13.2062" rx="3.75" fill="white" stroke="#326091" stroke-width="0.5"/>
<line x1="61.8008" y1="58.2087" x2="78.2703" y2="58.2087" stroke="#326091" stroke-width="0.5" stroke-linecap="round"/>
<line x1="61.8008" y1="61.0366" x2="78.2703" y2="61.0366" stroke="#326091" stroke-width="0.5" stroke-linecap="round"/>
<line x1="61.8008" y1="62.342" x2="73.484" y2="62.342" stroke="#326091" stroke-width="0.5" stroke-linecap="round"/>
<path d="M67.8906 55.5973V38.4314L70.2523 35.8644H81.7495V55.5973H67.8906Z" fill="white" stroke="#326091" stroke-width="0.5"/>
<line x1="70.0664" y1="45.3716" x2="79.5741" y2="45.3716" stroke="#326091" stroke-width="0.5" stroke-linecap="round"/>
<line x1="70.0664" y1="44.0669" x2="75.2229" y2="44.0669" stroke="#326091" stroke-width="0.5" stroke-linecap="round"/>
<line x1="77.0273" y1="44.0669" x2="79.3556" y2="44.0669" stroke="#326091" stroke-width="0.5" stroke-linecap="round"/>
<line x1="70.0664" y1="42.7619" x2="78.2687" y2="42.7619" stroke="#326091" stroke-width="0.5" stroke-linecap="round"/>
<line x1="61.8008" y1="59.513" x2="69.7856" y2="59.513" stroke="#326091" stroke-width="0.5" stroke-linecap="round"/>
<line x1="71.5898" y1="59.513" x2="74.1357" y2="59.513" stroke="#326091" stroke-width="0.5" stroke-linecap="round"/>
<rect x="60.6797" y="55.1443" width="2.10593" height="0.435117" rx="0.217558" transform="rotate(-29.5 60.6797 55.1443)" fill="#326091"/>
<rect width="2.10593" height="0.435117" rx="0.217558" transform="matrix(0.870356 0.492424 0.492424 -0.870356 60.6797 55.414)" fill="#326091"/>
<rect x="65.6836" y="55.4153" width="2.10593" height="0.435117" rx="0.217558" transform="rotate(150.5 65.6836 55.4153)" fill="#326091"/>
<rect width="2.10593" height="0.435117" rx="0.217558" transform="matrix(-0.870356 -0.492423 -0.492424 0.870356 65.6836 55.1451)" fill="#326091"/>
<rect x="35.7266" y="28.9348" width="9.87792" height="9.87792" rx="2.5" fill="white" stroke="white"/>
<path d="M39.8025 34.0033C38.5796 33.8965 37.5096 36.3529 37 35.6053V38.1684H45V35.2315C44.2866 35.8189 43.4713 36.3934 42.6051 36.1393C41.7389 35.8851 40.9303 34.1018 39.8025 34.0033Z" fill="#4385F3"/>
<path d="M44.5372 30.4747C44.5372 30.7969 44.2818 31.0546 43.971 31.0546C43.6601 31.0546 43.4047 30.7969 43.4047 30.4747C43.4047 30.1526 43.6601 29.8949 43.971 29.8949C44.2818 29.8949 44.5372 30.1526 44.5372 30.4747Z" fill="#D9D9D9" stroke="#4385F3" stroke-width="0.2"/>
<rect x="31.6273" y="36.1502" width="7.41454" height="6.32675" rx="1.9" fill="white" stroke="#4385F3" stroke-width="0.2"/>
<path d="M36.9648 39.3125L34.3541 40.8198V37.8053L36.9648 39.3125Z" fill="#4385F3"/>
<path d="M30.645 94.385C30.645 93.365 30.875 92.45 31.335 91.64C31.795 90.82 32.42 90.18 33.21 89.72C34.01 89.26 34.895 89.03 35.865 89.03C37.005 89.03 38 89.305 38.85 89.855C39.7 90.405 40.32 91.185 40.71 92.195H39.075C38.785 91.565 38.365 91.08 37.815 90.74C37.275 90.4 36.625 90.23 35.865 90.23C35.135 90.23 34.48 90.4 33.9 90.74C33.32 91.08 32.865 91.565 32.535 92.195C32.205 92.815 32.04 93.545 32.04 94.385C32.04 95.215 32.205 95.945 32.535 96.575C32.865 97.195 33.32 97.675 33.9 98.015C34.48 98.355 35.135 98.525 35.865 98.525C36.625 98.525 37.275 98.36 37.815 98.03C38.365 97.69 38.785 97.205 39.075 96.575H40.71C40.32 97.575 39.7 98.35 38.85 98.9C38 99.44 37.005 99.71 35.865 99.71C34.895 99.71 34.01 99.485 33.21 99.035C32.42 98.575 31.795 97.94 31.335 97.13C30.875 96.32 30.645 95.405 30.645 94.385ZM44.1069 92.735C44.3469 92.265 44.6869 91.9 45.1269 91.64C45.5769 91.38 46.1219 91.25 46.7619 91.25V92.66H46.4019C44.8719 92.66 44.1069 93.49 44.1069 95.15V99.62H42.7419V91.4H44.1069V92.735ZM55.8376 95.195C55.8376 95.455 55.8226 95.73 55.7926 96.02H49.2226C49.2726 96.83 49.5476 97.465 50.0476 97.925C50.5576 98.375 51.1726 98.6 51.8926 98.6C52.4826 98.6 52.9726 98.465 53.3626 98.195C53.7626 97.915 54.0426 97.545 54.2026 97.085H55.6726C55.4526 97.875 55.0126 98.52 54.3526 99.02C53.6926 99.51 52.8726 99.755 51.8926 99.755C51.1126 99.755 50.4126 99.58 49.7926 99.23C49.1826 98.88 48.7026 98.385 48.3526 97.745C48.0026 97.095 47.8276 96.345 47.8276 95.495C47.8276 94.645 47.9976 93.9 48.3376 93.26C48.6776 92.62 49.1526 92.13 49.7626 91.79C50.3826 91.44 51.0926 91.265 51.8926 91.265C52.6726 91.265 53.3626 91.435 53.9626 91.775C54.5626 92.115 55.0226 92.585 55.3426 93.185C55.6726 93.775 55.8376 94.445 55.8376 95.195ZM54.4276 94.91C54.4276 94.39 54.3126 93.945 54.0826 93.575C53.8526 93.195 53.5376 92.91 53.1376 92.72C52.7476 92.52 52.3126 92.42 51.8326 92.42C51.1426 92.42 50.5526 92.64 50.0626 93.08C49.5826 93.52 49.3076 94.13 49.2376 94.91H54.4276ZM57.1294 95.48C57.1294 94.64 57.2994 93.905 57.6394 93.275C57.9794 92.635 58.4444 92.14 59.0344 91.79C59.6344 91.44 60.2994 91.265 61.0294 91.265C61.7494 91.265 62.3744 91.42 62.9044 91.73C63.4344 92.04 63.8294 92.43 64.0894 92.9V91.4H65.4694V99.62H64.0894V98.09C63.8194 98.57 63.4144 98.97 62.8744 99.29C62.3444 99.6 61.7244 99.755 61.0144 99.755C60.2844 99.755 59.6244 99.575 59.0344 99.215C58.4444 98.855 57.9794 98.35 57.6394 97.7C57.2994 97.05 57.1294 96.31 57.1294 95.48ZM64.0894 95.495C64.0894 94.875 63.9644 94.335 63.7144 93.875C63.4644 93.415 63.1244 93.065 62.6944 92.825C62.2744 92.575 61.8094 92.45 61.2994 92.45C60.7894 92.45 60.3244 92.57 59.9044 92.81C59.4844 93.05 59.1494 93.4 58.8994 93.86C58.6494 94.32 58.5244 94.86 58.5244 95.48C58.5244 96.11 58.6494 96.66 58.8994 97.13C59.1494 97.59 59.4844 97.945 59.9044 98.195C60.3244 98.435 60.7894 98.555 61.2994 98.555C61.8094 98.555 62.2744 98.435 62.6944 98.195C63.1244 97.945 63.4644 97.59 63.7144 97.13C63.9644 96.66 64.0894 96.115 64.0894 95.495ZM69.4411 92.525V97.37C69.4411 97.77 69.5261 98.055 69.6961 98.225C69.8661 98.385 70.1611 98.465 70.5811 98.465H71.5861V99.62H70.3561C69.5961 99.62 69.0261 99.445 68.6461 99.095C68.2661 98.745 68.0761 98.17 68.0761 97.37V92.525H67.0111V91.4H68.0761V89.33H69.4411V91.4H71.5861V92.525H69.4411ZM80.74 95.195C80.74 95.455 80.725 95.73 80.695 96.02H74.125C74.175 96.83 74.45 97.465 74.95 97.925C75.46 98.375 76.075 98.6 76.795 98.6C77.385 98.6 77.875 98.465 78.265 98.195C78.665 97.915 78.945 97.545 79.105 97.085H80.575C80.355 97.875 79.915 98.52 79.255 99.02C78.595 99.51 77.775 99.755 76.795 99.755C76.015 99.755 75.315 99.58 74.695 99.23C74.085 98.88 73.605 98.385 73.255 97.745C72.905 97.095 72.73 96.345 72.73 95.495C72.73 94.645 72.9 93.9 73.24 93.26C73.58 92.62 74.055 92.13 74.665 91.79C75.285 91.44 75.995 91.265 76.795 91.265C77.575 91.265 78.265 91.435 78.865 91.775C79.465 92.115 79.925 92.585 80.245 93.185C80.575 93.775 80.74 94.445 80.74 95.195ZM79.33 94.91C79.33 94.39 79.215 93.945 78.985 93.575C78.755 93.195 78.44 92.91 78.04 92.72C77.65 92.52 77.215 92.42 76.735 92.42C76.045 92.42 75.455 92.64 74.965 93.08C74.485 93.52 74.21 94.13 74.14 94.91H79.33Z" fill="white"/>
<defs>
<clipPath id="clip0_975_2640">
<rect width="10.8779" height="10.8779" fill="white" transform="translate(25 44.9687)"/>
</clipPath>
</defs>
</svg>
