<svg width="150" height="34" viewBox="0 0 150 34" fill="none" xmlns="http://www.w3.org/2000/svg">
<rect width="150" height="33.5294" fill="#4385F3"/>
<g filter="url(#filter0_d_975_2767)">
<path d="M21.256 21.098C20.6027 21.098 20.0147 20.986 19.492 20.762C18.9693 20.5287 18.5587 20.202 18.26 19.782C17.9613 19.362 17.812 18.872 17.812 18.312H19.52C19.5573 18.732 19.7207 19.0773 20.01 19.348C20.3087 19.6187 20.724 19.754 21.256 19.754C21.8067 19.754 22.236 19.6233 22.544 19.362C22.852 19.0913 23.006 18.746 23.006 18.326C23.006 17.9993 22.908 17.7333 22.712 17.528C22.5253 17.3227 22.2873 17.164 21.998 17.052C21.718 16.94 21.326 16.8187 20.822 16.688C20.1873 16.52 19.6693 16.352 19.268 16.184C18.876 16.0067 18.54 15.736 18.26 15.372C17.98 15.008 17.84 14.5227 17.84 13.916C17.84 13.356 17.98 12.866 18.26 12.446C18.54 12.026 18.932 11.704 19.436 11.48C19.94 11.256 20.5233 11.144 21.186 11.144C22.1287 11.144 22.8987 11.382 23.496 11.858C24.1027 12.3247 24.4387 12.9687 24.504 13.79H22.74C22.712 13.4353 22.544 13.132 22.236 12.88C21.928 12.628 21.522 12.502 21.018 12.502C20.5607 12.502 20.1873 12.6187 19.898 12.852C19.6087 13.0853 19.464 13.4213 19.464 13.86C19.464 14.1587 19.5527 14.406 19.73 14.602C19.9167 14.7887 20.15 14.938 20.43 15.05C20.71 15.162 21.0927 15.2833 21.578 15.414C22.222 15.5913 22.7447 15.7687 23.146 15.946C23.5567 16.1233 23.902 16.3987 24.182 16.772C24.4713 17.136 24.616 17.626 24.616 18.242C24.616 18.7367 24.4807 19.2033 24.21 19.642C23.9487 20.0807 23.5613 20.4353 23.048 20.706C22.544 20.9673 21.9467 21.098 21.256 21.098ZM33.5692 16.954C33.5692 17.2433 33.5506 17.5047 33.5132 17.738H27.6192C27.6659 18.354 27.8946 18.8487 28.3052 19.222C28.7159 19.5953 29.2199 19.782 29.8172 19.782C30.6759 19.782 31.2826 19.4227 31.6372 18.704H33.3592C33.1259 19.4133 32.7012 19.9967 32.0852 20.454C31.4786 20.902 30.7226 21.126 29.8172 21.126C29.0799 21.126 28.4172 20.9627 27.8292 20.636C27.2506 20.3 26.7932 19.8333 26.4572 19.236C26.1306 18.6293 25.9672 17.9293 25.9672 17.136C25.9672 16.3427 26.1259 15.6473 26.4432 15.05C26.7699 14.4433 27.2226 13.9767 27.8012 13.65C28.3892 13.3233 29.0612 13.16 29.8172 13.16C30.5452 13.16 31.1939 13.3187 31.7632 13.636C32.3326 13.9533 32.7759 14.4013 33.0932 14.98C33.4106 15.5493 33.5692 16.2073 33.5692 16.954ZM31.9032 16.45C31.8939 15.862 31.6839 15.3907 31.2732 15.036C30.8626 14.6813 30.3539 14.504 29.7472 14.504C29.1966 14.504 28.7252 14.6813 28.3332 15.036C27.9412 15.3813 27.7079 15.8527 27.6332 16.45H31.9032ZM42.2098 16.954C42.2098 17.2433 42.1912 17.5047 42.1538 17.738H36.2598C36.3065 18.354 36.5352 18.8487 36.9458 19.222C37.3565 19.5953 37.8605 19.782 38.4578 19.782C39.3165 19.782 39.9232 19.4227 40.2778 18.704H41.9998C41.7665 19.4133 41.3418 19.9967 40.7258 20.454C40.1192 20.902 39.3632 21.126 38.4578 21.126C37.7205 21.126 37.0578 20.9627 36.4698 20.636C35.8912 20.3 35.4338 19.8333 35.0978 19.236C34.7712 18.6293 34.6078 17.9293 34.6078 17.136C34.6078 16.3427 34.7665 15.6473 35.0838 15.05C35.4105 14.4433 35.8632 13.9767 36.4418 13.65C37.0298 13.3233 37.7018 13.16 38.4578 13.16C39.1858 13.16 39.8345 13.3187 40.4038 13.636C40.9732 13.9533 41.4165 14.4013 41.7338 14.98C42.0512 15.5493 42.2098 16.2073 42.2098 16.954ZM40.5438 16.45C40.5345 15.862 40.3245 15.3907 39.9138 15.036C39.5032 14.6813 38.9945 14.504 38.3878 14.504C37.8372 14.504 37.3658 14.6813 36.9738 15.036C36.5818 15.3813 36.3485 15.8527 36.2738 16.45H40.5438ZM50.7632 21.126C50.0352 21.126 49.3772 20.9627 48.7892 20.636C48.2012 20.3 47.7392 19.8333 47.4032 19.236C47.0672 18.6293 46.8992 17.9293 46.8992 17.136C46.8992 16.352 47.0719 15.6567 47.4172 15.05C47.7625 14.4433 48.2339 13.9767 48.8312 13.65C49.4285 13.3233 50.0959 13.16 50.8332 13.16C51.5705 13.16 52.2379 13.3233 52.8352 13.65C53.4325 13.9767 53.9039 14.4433 54.2492 15.05C54.5945 15.6567 54.7672 16.352 54.7672 17.136C54.7672 17.92 54.5899 18.6153 54.2352 19.222C53.8805 19.8287 53.3952 20.3 52.7792 20.636C52.1725 20.9627 51.5005 21.126 50.7632 21.126ZM50.7632 19.74C51.1739 19.74 51.5565 19.642 51.9112 19.446C52.2752 19.25 52.5692 18.956 52.7932 18.564C53.0172 18.172 53.1292 17.696 53.1292 17.136C53.1292 16.576 53.0219 16.1047 52.8072 15.722C52.5925 15.33 52.3079 15.036 51.9532 14.84C51.5985 14.644 51.2159 14.546 50.8052 14.546C50.3945 14.546 50.0119 14.644 49.6572 14.84C49.3119 15.036 49.0365 15.33 48.8312 15.722C48.6259 16.1047 48.5232 16.576 48.5232 17.136C48.5232 17.9667 48.7332 18.6107 49.1532 19.068C49.5825 19.516 50.1192 19.74 50.7632 19.74ZM63.3309 13.286V21H61.7349V20.09C61.4829 20.4073 61.1516 20.6593 60.7409 20.846C60.3396 21.0233 59.9103 21.112 59.4529 21.112C58.8463 21.112 58.3003 20.986 57.8149 20.734C57.3389 20.482 56.9609 20.1087 56.6809 19.614C56.4103 19.1193 56.2749 18.522 56.2749 17.822V13.286H57.8569V17.584C57.8569 18.2747 58.0296 18.8067 58.3749 19.18C58.7203 19.544 59.1916 19.726 59.7889 19.726C60.3863 19.726 60.8576 19.544 61.2029 19.18C61.5576 18.8067 61.7349 18.2747 61.7349 17.584V13.286H63.3309ZM67.0327 14.406C67.2661 14.014 67.5741 13.7107 67.9567 13.496C68.3487 13.272 68.8107 13.16 69.3427 13.16V14.812H68.9367C68.3114 14.812 67.8354 14.9707 67.5087 15.288C67.1914 15.6053 67.0327 16.156 67.0327 16.94V21H65.4367V13.286H67.0327V14.406ZM81.2505 14.168C81.2505 14.6627 81.1338 15.1293 80.9005 15.568C80.6672 16.0067 80.2938 16.366 79.7805 16.646C79.2672 16.9167 78.6092 17.052 77.8065 17.052H76.0425V21H74.4465V11.27H77.8065C78.5532 11.27 79.1832 11.4007 79.6965 11.662C80.2192 11.914 80.6065 12.2593 80.8585 12.698C81.1198 13.1367 81.2505 13.6267 81.2505 14.168ZM77.8065 15.75C78.4132 15.75 78.8658 15.6147 79.1645 15.344C79.4632 15.064 79.6125 14.672 79.6125 14.168C79.6125 13.104 79.0105 12.572 77.8065 12.572H76.0425V15.75H77.8065ZM82.2407 17.108C82.2407 16.3333 82.3993 15.6473 82.7167 15.05C83.0433 14.4527 83.482 13.9907 84.0327 13.664C84.5927 13.328 85.2087 13.16 85.8807 13.16C86.4873 13.16 87.0147 13.2813 87.4627 13.524C87.92 13.7573 88.284 14.0513 88.5547 14.406V13.286H90.1647V21H88.5547V19.852C88.284 20.216 87.9153 20.5193 87.4487 20.762C86.982 21.0047 86.45 21.126 85.8527 21.126C85.19 21.126 84.5833 20.958 84.0327 20.622C83.482 20.2767 83.0433 19.8007 82.7167 19.194C82.3993 18.578 82.2407 17.8827 82.2407 17.108ZM88.5547 17.136C88.5547 16.604 88.4427 16.142 88.2187 15.75C88.004 15.358 87.7193 15.0593 87.3647 14.854C87.01 14.6487 86.6273 14.546 86.2167 14.546C85.806 14.546 85.4233 14.6487 85.0687 14.854C84.714 15.05 84.4247 15.344 84.2007 15.736C83.986 16.1187 83.8787 16.576 83.8787 17.108C83.8787 17.64 83.986 18.1067 84.2007 18.508C84.4247 18.9093 84.714 19.2173 85.0687 19.432C85.4327 19.6373 85.8153 19.74 86.2167 19.74C86.6273 19.74 87.01 19.6373 87.3647 19.432C87.7193 19.2267 88.004 18.928 88.2187 18.536C88.4427 18.1347 88.5547 17.668 88.5547 17.136ZM93.8569 14.406C94.0903 14.014 94.3983 13.7107 94.7809 13.496C95.1729 13.272 95.6349 13.16 96.1669 13.16V14.812H95.7609C95.1356 14.812 94.6596 14.9707 94.3329 15.288C94.0156 15.6053 93.8569 16.156 93.8569 16.94V21H92.2609V13.286H93.8569V14.406ZM99.496 14.588V18.858C99.496 19.1473 99.5613 19.3573 99.692 19.488C99.832 19.6093 100.065 19.67 100.392 19.67H101.372V21H100.112C99.3933 21 98.8427 20.832 98.46 20.496C98.0773 20.16 97.886 19.614 97.886 18.858V14.588H96.976V13.286H97.886V11.368H99.496V13.286H101.372V14.588H99.496ZM106.735 13.16C107.342 13.16 107.883 13.286 108.359 13.538C108.844 13.79 109.222 14.1633 109.493 14.658C109.764 15.1527 109.899 15.75 109.899 16.45V21H108.317V16.688C108.317 15.9973 108.144 15.47 107.799 15.106C107.454 14.7327 106.982 14.546 106.385 14.546C105.788 14.546 105.312 14.7327 104.957 15.106C104.612 15.47 104.439 15.9973 104.439 16.688V21H102.843V13.286H104.439V14.168C104.7 13.8507 105.032 13.6033 105.433 13.426C105.844 13.2487 106.278 13.16 106.735 13.16ZM119.005 16.954C119.005 17.2433 118.986 17.5047 118.949 17.738H113.055C113.101 18.354 113.33 18.8487 113.741 19.222C114.151 19.5953 114.655 19.782 115.253 19.782C116.111 19.782 116.718 19.4227 117.073 18.704H118.795C118.561 19.4133 118.137 19.9967 117.521 20.454C116.914 20.902 116.158 21.126 115.253 21.126C114.515 21.126 113.853 20.9627 113.265 20.636C112.686 20.3 112.229 19.8333 111.893 19.236C111.566 18.6293 111.403 17.9293 111.403 17.136C111.403 16.3427 111.561 15.6473 111.879 15.05C112.205 14.4433 112.658 13.9767 113.237 13.65C113.825 13.3233 114.497 13.16 115.253 13.16C115.981 13.16 116.629 13.3187 117.199 13.636C117.768 13.9533 118.211 14.4013 118.529 14.98C118.846 15.5493 119.005 16.2073 119.005 16.954ZM117.339 16.45C117.329 15.862 117.119 15.3907 116.709 15.036C116.298 14.6813 115.789 14.504 115.183 14.504C114.632 14.504 114.161 14.6813 113.769 15.036C113.377 15.3813 113.143 15.8527 113.069 16.45H117.339ZM122.171 14.406C122.405 14.014 122.713 13.7107 123.095 13.496C123.487 13.272 123.949 13.16 124.481 13.16V14.812H124.075C123.45 14.812 122.974 14.9707 122.647 15.288C122.33 15.6053 122.171 16.156 122.171 16.94V21H120.575V13.286H122.171V14.406ZM128.748 21.126C128.142 21.126 127.596 21.0187 127.11 20.804C126.634 20.58 126.256 20.2813 125.976 19.908C125.696 19.5253 125.547 19.1007 125.528 18.634H127.18C127.208 18.9607 127.362 19.236 127.642 19.46C127.932 19.6747 128.291 19.782 128.72 19.782C129.168 19.782 129.514 19.698 129.756 19.53C130.008 19.3527 130.134 19.1287 130.134 18.858C130.134 18.5687 129.994 18.354 129.714 18.214C129.444 18.074 129.01 17.92 128.412 17.752C127.834 17.5933 127.362 17.4393 126.998 17.29C126.634 17.1407 126.317 16.912 126.046 16.604C125.785 16.296 125.654 15.89 125.654 15.386C125.654 14.9753 125.776 14.602 126.018 14.266C126.261 13.9207 126.606 13.65 127.054 13.454C127.512 13.258 128.034 13.16 128.622 13.16C129.5 13.16 130.204 13.384 130.736 13.832C131.278 14.2707 131.567 14.8727 131.604 15.638H130.008C129.98 15.2927 129.84 15.0173 129.588 14.812C129.336 14.6067 128.996 14.504 128.566 14.504C128.146 14.504 127.824 14.5833 127.6 14.742C127.376 14.9007 127.264 15.1107 127.264 15.372C127.264 15.5773 127.339 15.75 127.488 15.89C127.638 16.03 127.82 16.142 128.034 16.226C128.249 16.3007 128.566 16.3987 128.986 16.52C129.546 16.6693 130.004 16.8233 130.358 16.982C130.722 17.1313 131.035 17.3553 131.296 17.654C131.558 17.9527 131.693 18.3493 131.702 18.844C131.702 19.2827 131.581 19.6747 131.338 20.02C131.096 20.3653 130.75 20.636 130.302 20.832C129.864 21.028 129.346 21.126 128.748 21.126Z" fill="white"/>
</g>
<defs>
<filter id="filter0_d_975_2767" x="13.8125" y="11.144" width="121.891" height="17.982" filterUnits="userSpaceOnUse" color-interpolation-filters="sRGB">
<feFlood flood-opacity="0" result="BackgroundImageFix"/>
<feColorMatrix in="SourceAlpha" type="matrix" values="0 0 0 0 0 0 0 0 0 0 0 0 0 0 0 0 0 0 127 0" result="hardAlpha"/>
<feOffset dy="4"/>
<feGaussianBlur stdDeviation="2"/>
<feComposite in2="hardAlpha" operator="out"/>
<feColorMatrix type="matrix" values="0 0 0 0 0 0 0 0 0 0 0 0 0 0 0 0 0 0 0.4 0"/>
<feBlend mode="normal" in2="BackgroundImageFix" result="effect1_dropShadow_975_2767"/>
<feBlend mode="normal" in="SourceGraphic" in2="effect1_dropShadow_975_2767" result="shape"/>
</filter>
</defs>
</svg>
