<svg width="128" height="144" viewBox="0 0 128 144" fill="none" xmlns="http://www.w3.org/2000/svg">
<rect x="20.5703" width="108.125" height="131.746" rx="4" transform="rotate(6.5 20.5703 0)" fill="#0B2B1B"/>
<rect width="108.125" height="131.746" rx="4" fill="#109D58"/>
<path d="M22.645 94.385C22.645 93.365 22.875 92.45 23.335 91.64C23.795 90.82 24.42 90.18 25.21 89.72C26.01 89.26 26.895 89.03 27.865 89.03C29.005 89.03 30 89.305 30.85 89.855C31.7 90.405 32.32 91.185 32.71 92.195H31.075C30.785 91.565 30.365 91.08 29.815 90.74C29.275 90.4 28.625 90.23 27.865 90.23C27.135 90.23 26.48 90.4 25.9 90.74C25.32 91.08 24.865 91.565 24.535 92.195C24.205 92.815 24.04 93.545 24.04 94.385C24.04 95.215 24.205 95.945 24.535 96.575C24.865 97.195 25.32 97.675 25.9 98.015C26.48 98.355 27.135 98.525 27.865 98.525C28.625 98.525 29.275 98.36 29.815 98.03C30.365 97.69 30.785 97.205 31.075 96.575H32.71C32.32 97.575 31.7 98.35 30.85 98.9C30 99.44 29.005 99.71 27.865 99.71C26.895 99.71 26.01 99.485 25.21 99.035C24.42 98.575 23.795 97.94 23.335 97.13C22.875 96.32 22.645 95.405 22.645 94.385ZM38.3269 99.755C37.5569 99.755 36.8569 99.58 36.2269 99.23C35.6069 98.88 35.1169 98.385 34.7569 97.745C34.4069 97.095 34.2319 96.345 34.2319 95.495C34.2319 94.655 34.4119 93.915 34.7719 93.275C35.1419 92.625 35.6419 92.13 36.2719 91.79C36.9019 91.44 37.6069 91.265 38.3869 91.265C39.1669 91.265 39.8719 91.44 40.5019 91.79C41.1319 92.13 41.6269 92.62 41.9869 93.26C42.3569 93.9 42.5419 94.645 42.5419 95.495C42.5419 96.345 42.3519 97.095 41.9719 97.745C41.6019 98.385 41.0969 98.88 40.4569 99.23C39.8169 99.58 39.1069 99.755 38.3269 99.755ZM38.3269 98.555C38.8169 98.555 39.2769 98.44 39.7069 98.21C40.1369 97.98 40.4819 97.635 40.7419 97.175C41.0119 96.715 41.1469 96.155 41.1469 95.495C41.1469 94.835 41.0169 94.275 40.7569 93.815C40.4969 93.355 40.1569 93.015 39.7369 92.795C39.3169 92.565 38.8619 92.45 38.3719 92.45C37.8719 92.45 37.4119 92.565 36.9919 92.795C36.5819 93.015 36.2519 93.355 36.0019 93.815C35.7519 94.275 35.6269 94.835 35.6269 95.495C35.6269 96.165 35.7469 96.73 35.9869 97.19C36.2369 97.65 36.5669 97.995 36.9769 98.225C37.3869 98.445 37.8369 98.555 38.3269 98.555ZM48.3416 91.25C49.3416 91.25 50.1516 91.555 50.7716 92.165C51.3916 92.765 51.7016 93.635 51.7016 94.775V99.62H50.3516V94.97C50.3516 94.15 50.1466 93.525 49.7366 93.095C49.3266 92.655 48.7666 92.435 48.0566 92.435C47.3366 92.435 46.7616 92.66 46.3316 93.11C45.9116 93.56 45.7016 94.215 45.7016 95.075V99.62H44.3366V91.4H45.7016V92.57C45.9716 92.15 46.3366 91.825 46.7966 91.595C47.2666 91.365 47.7816 91.25 48.3416 91.25ZM57.9364 91.25C58.9364 91.25 59.7464 91.555 60.3664 92.165C60.9864 92.765 61.2964 93.635 61.2964 94.775V99.62H59.9464V94.97C59.9464 94.15 59.7414 93.525 59.3314 93.095C58.9214 92.655 58.3614 92.435 57.6514 92.435C56.9314 92.435 56.3564 92.66 55.9264 93.11C55.5064 93.56 55.2964 94.215 55.2964 95.075V99.62H53.9314V91.4H55.2964V92.57C55.5664 92.15 55.9314 91.825 56.3914 91.595C56.8614 91.365 57.3764 91.25 57.9364 91.25ZM71.0261 95.195C71.0261 95.455 71.0111 95.73 70.9811 96.02H64.4111C64.4611 96.83 64.7361 97.465 65.2361 97.925C65.7461 98.375 66.3611 98.6 67.0811 98.6C67.6711 98.6 68.1611 98.465 68.5511 98.195C68.9511 97.915 69.2311 97.545 69.3911 97.085H70.8611C70.6411 97.875 70.2011 98.52 69.5411 99.02C68.8811 99.51 68.0611 99.755 67.0811 99.755C66.3011 99.755 65.6011 99.58 64.9811 99.23C64.3711 98.88 63.8911 98.385 63.5411 97.745C63.1911 97.095 63.0161 96.345 63.0161 95.495C63.0161 94.645 63.1861 93.9 63.5261 93.26C63.8661 92.62 64.3411 92.13 64.9511 91.79C65.5711 91.44 66.2811 91.265 67.0811 91.265C67.8611 91.265 68.5511 91.435 69.1511 91.775C69.7511 92.115 70.2111 92.585 70.5311 93.185C70.8611 93.775 71.0261 94.445 71.0261 95.195ZM69.6161 94.91C69.6161 94.39 69.5011 93.945 69.2711 93.575C69.0411 93.195 68.7261 92.91 68.3261 92.72C67.9361 92.52 67.5011 92.42 67.0211 92.42C66.3311 92.42 65.7411 92.64 65.2511 93.08C64.7711 93.52 64.4961 94.13 64.4261 94.91H69.6161ZM72.3179 95.495C72.3179 94.645 72.4879 93.905 72.8279 93.275C73.1679 92.635 73.6379 92.14 74.2379 91.79C74.8479 91.44 75.5429 91.265 76.3229 91.265C77.3329 91.265 78.1629 91.51 78.8129 92C79.4729 92.49 79.9079 93.17 80.1179 94.04H78.6479C78.5079 93.54 78.2329 93.145 77.8229 92.855C77.4229 92.565 76.9229 92.42 76.3229 92.42C75.5429 92.42 74.9129 92.69 74.4329 93.23C73.9529 93.76 73.7129 94.515 73.7129 95.495C73.7129 96.485 73.9529 97.25 74.4329 97.79C74.9129 98.33 75.5429 98.6 76.3229 98.6C76.9229 98.6 77.4229 98.46 77.8229 98.18C78.2229 97.9 78.4979 97.5 78.6479 96.98H80.1179C79.8979 97.82 79.4579 98.495 78.7979 99.005C78.1379 99.505 77.3129 99.755 76.3229 99.755C75.5429 99.755 74.8479 99.58 74.2379 99.23C73.6379 98.88 73.1679 98.385 72.8279 97.745C72.4879 97.105 72.3179 96.355 72.3179 95.495ZM83.6042 92.525V97.37C83.6042 97.77 83.6892 98.055 83.8592 98.225C84.0292 98.385 84.3242 98.465 84.7442 98.465H85.7492V99.62H84.5192C83.7592 99.62 83.1892 99.445 82.8092 99.095C82.4292 98.745 82.2392 98.17 82.2392 97.37V92.525H81.1742V91.4H82.2392V89.33H83.6042V91.4H85.7492V92.525H83.6042Z" fill="white"/>
<line x1="58.1597" y1="46.0269" x2="78.6966" y2="58.4094" stroke="white" stroke-width="0.8"/>
<line x1="37.3213" y1="34.2495" x2="58.1602" y2="46.9341" stroke="white" stroke-width="0.8"/>
<path d="M58.0258 46.8017L37.2632 58.7513" stroke="white" stroke-width="0.8" stroke-dasharray="10 10"/>
<path d="M78.488 34.5912L58.0035 46.8427" stroke="white" stroke-width="0.8"/>
<line x1="57.5531" y1="38.2144" x2="57.5531" y2="22.5097" stroke="white" stroke-width="0.8"/>
<line x1="57.5531" y1="69.0198" x2="57.5531" y2="56.3353" stroke="white" stroke-width="0.8"/>
<path d="M57.9515 70.6812L78.7161 58.6203" stroke="white" stroke-width="0.8"/>
<path d="M37.2656 34.7416L57.9536 22.6611" stroke="white"/>
<path d="M37.2656 34.7416L57.9536 22.6611" stroke="white" stroke-width="0.8"/>
<ellipse cx="57.9549" cy="46.9732" rx="9.0604" ry="9.0604" fill="#109D58"/>
<path d="M57.6493 54.6745C56.2841 54.6745 54.9454 54.2968 53.7815 53.5831C52.6177 52.8695 51.6739 51.8477 51.0547 50.631C50.4355 49.4142 50.1651 48.0498 50.2733 46.6889C50.3815 45.3279 50.8641 44.0234 51.6677 42.9197" stroke="#FFFEFE" stroke-width="0.7" stroke-linecap="round"/>
<path d="M57.8025 39.8757C59.1102 39.8757 60.2436 40.2222 61.3739 40.8801C62.5041 41.538 63.4398 42.4837 64.0856 43.6209C64.7314 44.7581 65.0643 46.0462 65.0504 47.3539C65.0364 48.6616 64.6761 49.9422 64.0062 51.0654" stroke="#FFFEFE" stroke-width="0.7" stroke-linecap="round"/>
<path d="M63.7732 51.4339C63.1532 52.3466 62.3369 53.109 61.3842 53.6655C60.4314 54.2219 59.3663 54.5583 58.2668 54.65" stroke="white" stroke-width="0.3" stroke-dasharray="10 3"/>
<path d="M52.0386 42.4517C53.1503 41.1588 54.6744 40.2895 56.3532 39.9907" stroke="white" stroke-width="0.3" stroke-dasharray="8 3"/>
<line x1="78.393" y1="58.7518" x2="78.393" y2="34.5908" stroke="white" stroke-width="0.8"/>
<line x1="37.0141" y1="58.7518" x2="37.0141" y2="34.5908" stroke="white" stroke-width="0.8"/>
<path d="M57.9516 70.6812L37.037 58.5802" stroke="white" stroke-width="0.8"/>
<line x1="78.7647" y1="34.9981" x2="57.7526" y2="22.8562" stroke="white" stroke-width="0.8"/>
<path d="M59.064 70.8319C59.064 71.6118 58.4318 72.244 57.6519 72.244C56.8721 72.244 56.2398 71.6118 56.2398 70.8319C56.2398 70.052 56.8721 69.4198 57.6519 69.4198C58.4318 69.4198 59.064 70.052 59.064 70.8319Z" fill="#109D58" stroke="white" stroke-width="0.8"/>
<path d="M38.2242 59.0537C38.2242 59.8336 37.592 60.4658 36.8121 60.4658C36.0322 60.4658 35.4 59.8336 35.4 59.0537C35.4 58.2738 36.0322 57.6416 36.8121 57.6416C37.592 57.6416 38.2242 58.2738 38.2242 59.0537Z" fill="#109D58" stroke="white" stroke-width="0.8"/>
<path d="M38.2242 34.8925C38.2242 35.6724 37.592 36.3046 36.8121 36.3046C36.0322 36.3046 35.4 35.6724 35.4 34.8925C35.4 34.1127 36.0322 33.4804 36.8121 33.4804C37.592 33.4804 38.2242 34.1127 38.2242 34.8925Z" fill="#109D58" stroke="white" stroke-width="0.8"/>
<path d="M79.5992 34.8925C79.5992 35.6724 78.967 36.3046 78.1871 36.3046C77.4072 36.3046 76.775 35.6724 76.775 34.8925C76.775 34.1127 77.4072 33.4804 78.1871 33.4804C78.967 33.4804 79.5992 34.1127 79.5992 34.8925Z" fill="#109D58" stroke="white" stroke-width="0.8"/>
<path d="M79.5992 59.0537C79.5992 59.8336 78.967 60.4658 78.1871 60.4658C77.4072 60.4658 76.775 59.8336 76.775 59.0537C76.775 58.2738 77.4072 57.6416 78.1871 57.6416C78.967 57.6416 79.5992 58.2738 79.5992 59.0537Z" fill="#109D58" stroke="white" stroke-width="0.8"/>
<path d="M59.064 22.8121C59.064 23.592 58.4318 24.2242 57.6519 24.2242C56.8721 24.2242 56.2398 23.592 56.2398 22.8121C56.2398 22.0322 56.8721 21.4 57.6519 21.4C58.4318 21.4 59.064 22.0322 59.064 22.8121Z" fill="#109D58" stroke="white" stroke-width="0.8"/>
<path d="M57.8029 39.8759C53.7179 42.594 53.6836 50.7484 57.6519 54.5236" stroke="white" stroke-width="0.7"/>
<path d="M57.8025 39.8759C61.4078 42.594 61.1538 50.8994 57.6515 54.6746" stroke="white" stroke-width="0.7"/>
<path d="M63.6914 42.8138C61.4725 45.2174 54.6926 45.08 51.6109 42.7451" stroke="white" stroke-width="0.7"/>
<path d="M51.3086 50.8306C53.6646 48.4271 60.7209 48.5645 63.9932 50.8993" stroke="white" stroke-width="0.7" stroke-linecap="round"/>
<line x1="50.1016" y1="46.6231" x2="64.9002" y2="46.6231" stroke="white" stroke-width="0.7"/>
</svg>
